<svg id="nav-logo" viewBox="0 0 647 731" fill="none" xmlns="http://www.w3.org/2000/svg">
	<g clip-path="url(#clip0_77_190)">
		<path class="svg__logo--eye" d="M294.749 205H246.749V293H294.749V205Z" />
		<path d="M616.48 204V294.4H567.68V548C567.68 600 553.814 637.067 526.08 659.2C498.08 681.067 451.947 692 387.68 692C379.147 692 371.413 691.733 364.48 691.2C357.547 690.667 350.88 689.6 344.48 688V602.4C352.747 602.4 360.214 602.533 366.88 602.8C373.547 603.067 380.48 603.2 387.68 603.2C408.48 603.2 423.28 600.533 432.08 595.2C440.88 589.6 445.28 578.667 445.28 562.4V68H567.68V204H616.48Z"
			fill="#03E9F4" />
		<path d="M404.48 204V294.4H353.28V204H404.48Z" fill="#03E9F4" />
		<path d="M33.4241 294.6V204.2H82.2241V68.2H204.624V562.6C204.624 578.867 209.024 589.8 217.824 595.4C226.624 600.733 241.424 603.4 262.224 603.4C269.424 603.4 276.357 603.267 283.024 603C289.691 602.733 297.157 602.6 305.424 602.6V688.2C299.024 689.8 292.357 690.867 285.424 691.4C278.491 691.933 270.757 692.2 262.224 692.2C197.957 692.2 151.824 681.267 123.824 659.4C96.0908 637.267 82.2241 600.2 82.2241 548.2V294.6H33.4241ZM245.424 294.6V204.2H296.624V294.6H245.424Z" stroke="#03E9F4" stroke-width="3"/>
		<path d="M295.171 205.2H247.171V293.2H295.171V205.2Z" stroke="#03E9F4" stroke-width="3"/>
		<path d="M616.902 204.2V294.6H568.102V548.2C568.102 600.2 554.235 637.267 526.502 659.4C498.502 681.267 452.369 692.2 388.102 692.2C379.569 692.2 371.835 691.933 364.902 691.4C357.969 690.867 351.302 689.8 344.902 688.2V602.6C353.169 602.6 360.635 602.733 367.302 603C373.969 603.267 380.902 603.4 388.102 603.4C408.902 603.4 423.702 600.733 432.502 595.4C441.302 589.8 445.702 578.867 445.702 562.6V68.2H568.102V204.2H616.902Z"
			stroke="#03E9F4" stroke-width="3"/>
		<path d="M404.902 204.2V294.6H353.702V204.2H404.902Z" stroke="#03E9F4" stroke-width="3"/>
	</g>
	<defs>
		<clipPath id="clip0_77_190">
			<rect width="647" height="731" fill="white"/>
		</clipPath>
	</defs>
</svg>
